<svg xmlns="http://www.w3.org/2000/svg" width="14" height="14" viewBox="0 0 14 14"><g><g><g><path fill="#fff" d="M1 0h.813a1 1 0 0 1 1 1v.812a1 1 0 0 1-1 1H1a1 1 0 0 1-1-1V1a1 1 0 0 1 1-1z"/></g><g><path fill="#fff" d="M6.594 0h.812a1 1 0 0 1 1 1v.812a1 1 0 0 1-1 1h-.812a1 1 0 0 1-1-1V1a1 1 0 0 1 1-1z"/></g><g><path fill="#fff" d="M12.188 0H13a1 1 0 0 1 1 1v.812a1 1 0 0 1-1 1h-.812a1 1 0 0 1-1-1V1a1 1 0 0 1 1-1z"/></g></g><g><g><path fill="#fff" d="M1 5.594h.813a1 1 0 0 1 1 1v.812a1 1 0 0 1-1 1H1a1 1 0 0 1-1-1v-.812a1 1 0 0 1 1-1z"/></g><g><path fill="#fff" d="M6.594 5.594h.812a1 1 0 0 1 1 1v.812a1 1 0 0 1-1 1h-.812a1 1 0 0 1-1-1v-.812a1 1 0 0 1 1-1z"/></g><g><path fill="#fff" d="M12.188 5.594H13a1 1 0 0 1 1 1v.812a1 1 0 0 1-1 1h-.812a1 1 0 0 1-1-1v-.812a1 1 0 0 1 1-1z"/></g></g><g><g><path fill="#fff" d="M1 11.187h.813a1 1 0 0 1 1 1V13a1 1 0 0 1-1 1H1a1 1 0 0 1-1-1v-.812a1 1 0 0 1 1-1z"/></g><g><path fill="#fff" d="M6.594 11.187h.812a1 1 0 0 1 1 1V13a1 1 0 0 1-1 1h-.812a1 1 0 0 1-1-1v-.812a1 1 0 0 1 1-1z"/></g><g><path fill="#fff" d="M12.188 11.187H13a1 1 0 0 1 1 1V13a1 1 0 0 1-1 1h-.812a1 1 0 0 1-1-1v-.812a1 1 0 0 1 1-1z"/></g></g></g></svg>