<svg xmlns="http://www.w3.org/2000/svg" width="20" height="28" viewBox="0 0 20 28"><g><g><path fill="#f0e7e5" d="M13.573 9.551c0 1.938-1.564 3.516-3.485 3.516-1.921 0-3.485-1.578-3.485-3.516s1.564-3.516 3.485-3.516c1.921 0 3.485 1.578 3.485 3.516zm-.996 0c0-1.385-1.117-2.511-2.49-2.511C8.716 7.04 7.6 8.166 7.6 9.55c0 1.384 1.116 2.511 2.489 2.511 1.372 0 2.49-1.127 2.49-2.511zm5.06 6.83L10 27.512 2.35 16.367C-.502 12.528-.088 6.195 3.25 2.829A9.44 9.44 0 0 1 10 .007 9.44 9.44 0 0 1 16.75 2.83c3.337 3.366 3.752 9.7.887 13.553zM16.047 3.54A8.458 8.458 0 0 0 10 1.012 8.456 8.456 0 0 0 3.954 3.54C.942 6.577.57 12.298 3.159 15.78L10 25.747l6.83-9.951c2.6-3.497 2.23-9.218-.783-12.256z"/></g></g></svg>
