<svg xmlns="http://www.w3.org/2000/svg" width="39" height="37" viewBox="0 0 39 37"><g><g><path d="M21.793 13.13c.547-.803.78-1.75.675-2.677L32.858.017l5.816 5.843-10.387 10.436a3.935 3.935 0 0 0-2.633.652zm-7.665 9.9l1.642 1.627-6.605 6.637.377.384-1.59 1.973-5.232 3.332-.85-.852 3.317-5.252 1.97-1.6.377.38zm21.485 7.333c1.494 1.509 1.494 3.941 0 5.438a3.823 3.823 0 0 1-2.706 1.128 3.82 3.82 0 0 1-2.706-1.128L11.314 16.83l-.026-.026a8.09 8.09 0 0 1-8.258-1.982A8.156 8.156 0 0 1 .94 6.935l4.59 4.608 4.501-1.21 1.205-4.516-4.592-4.61A8.082 8.082 0 0 1 14.5 3.302a8.17 8.17 0 0 1 2.07 7.954zm-.913 3.324a1.46 1.46 0 0 0-2.92 0c.001.811.653 1.469 1.456 1.469.811 0 1.466-.658 1.464-1.469z"/></g></g></svg>