<svg xmlns="http://www.w3.org/2000/svg" width="45" height="32" viewBox="0 0 45 32"><g><g><path fill="#f0e7e5" d="M44.758 10.34a.818.818 0 0 1-1.159 0c-5.626-5.615-13.12-8.708-21.1-8.708-7.978 0-15.472 3.093-21.098 8.71A.82.82 0 0 1 .24 9.184C6.179 3.259 14.084-.003 22.5-.003S38.822 3.26 44.758 9.185c.32.319.32.837 0 1.155zm-4.818 3.652c.32.32.32.837 0 1.156a.82.82 0 0 1-1.159 0c-8.978-8.96-23.586-8.96-32.563 0a.818.818 0 0 1-1.16-1.156c9.618-9.6 25.266-9.598 34.882 0zM35.123 18.8a.816.816 0 0 1-.58 1.397c-.209 0-.419-.08-.578-.24A16.123 16.123 0 0 0 22.5 15.225a16.123 16.123 0 0 0-11.465 4.732.82.82 0 0 1-1.158-1.157c3.367-3.36 7.85-5.21 12.623-5.21s9.257 1.85 12.623 5.21zm-7.254 7.843c0 2.955-2.408 5.36-5.37 5.36-2.96 0-5.367-2.405-5.367-5.36 0-2.955 2.408-5.358 5.368-5.358 2.96 0 5.37 2.403 5.37 5.358zm-1.639 0a3.731 3.731 0 0 0-7.46 0 3.73 3.73 0 0 0 7.46 0z"/></g></g></svg>