<svg xmlns="http://www.w3.org/2000/svg" width="44" height="32" viewBox="0 0 44 32"><g><g><path d="M36.67 14.704a2.252 2.252 0 0 1 0 3.21 2.313 2.313 0 0 1-3.25 0c-6.203-6.108-16.298-6.108-22.501 0a2.337 2.337 0 0 1-3.26 0 2.252 2.252 0 0 1 0-3.21c7.995-7.882 21.016-7.882 29.011 0zm-6.23 6.135a2.242 2.242 0 0 1 0 3.201 2.314 2.314 0 0 1-3.25 0c-2.767-2.734-7.283-2.734-10.05 0a2.338 2.338 0 0 1-3.26 0 2.253 2.253 0 0 1 0-3.21c4.568-4.499 12.001-4.499 16.56.009zm-8.275 5.122c1.693 0 3.066 1.352 3.066 3.02 0 1.667-1.373 3.02-3.066 3.02-1.694 0-3.067-1.353-3.067-3.02 0-1.668 1.373-3.02 3.067-3.02zm20.822-14.276a2.314 2.314 0 0 1-3.25 0c-9.691-9.544-25.453-9.544-35.135 0a2.337 2.337 0 0 1-3.26 0 2.252 2.252 0 0 1 0-3.21c11.483-11.3 30.162-11.3 41.645 0a2.252 2.252 0 0 1 0 3.21z"/></g></g></svg>