<svg xmlns="http://www.w3.org/2000/svg" width="45" height="44" viewBox="0 0 45 44"><g><g><path fill="#151a20" d="M44.611 24.561c-.076.644-.656 1.13-1.287 1.08l-.272-.008c-1.944 0-3.752 1.198-4.499 2.982a4.875 4.875 0 0 0 1.232 5.488c.48.434.537 1.167.131 1.672a21.902 21.902 0 0 1-3.558 3.518 1.228 1.228 0 0 1-1.66-.139c-1.308-1.437-3.636-1.978-5.446-1.239-1.873.767-3.084 2.653-3.01 4.692.022.64-.45 1.189-1.088 1.26a21.767 21.767 0 0 1-4.948-.014 1.221 1.221 0 0 1-1.08-1.286 4.88 4.88 0 0 0-2.975-4.774c-1.813-.76-4.167-.222-5.483 1.234a1.223 1.223 0 0 1-1.674.132 21.859 21.859 0 0 1-3.479-3.52 1.222 1.222 0 0 1 .133-1.658c1.504-1.38 1.999-3.565 1.23-5.44-.771-1.878-2.61-3.063-4.525-3.014-.63 0-1.373-.462-1.442-1.083a22.054 22.054 0 0 1 .009-5.002c.077-.634.573-1.103 1.27-1.08 2.15 0 4.027-1.166 4.786-2.974a4.876 4.876 0 0 0-1.23-5.49 1.224 1.224 0 0 1-.13-1.67 21.876 21.876 0 0 1 3.557-3.52 1.225 1.225 0 0 1 1.66.14c1.308 1.44 3.646 1.975 5.444 1.24 1.875-.768 3.083-2.653 3.012-4.693a1.225 1.225 0 0 1 1.088-1.26 21.926 21.926 0 0 1 4.949.014 1.22 1.22 0 0 1 1.08 1.285 4.886 4.886 0 0 0 2.97 4.776c1.82.76 4.174.22 5.485-1.232a1.224 1.224 0 0 1 1.672-.136 21.774 21.774 0 0 1 3.484 3.52 1.223 1.223 0 0 1-.134 1.66 4.902 4.902 0 0 0-1.23 5.439c.75 1.831 2.538 3.014 4.554 3.014.623 0 1.344.466 1.414 1.084a21.958 21.958 0 0 1-.01 5.002zM29.59 32.69l-5.612-5.614a7.754 7.754 0 0 1-3.036.614 7.722 7.722 0 0 1-5.497-2.277 7.802 7.802 0 0 1-2.006-7.533c.107-.39.444-.663.82-.663.162 0 .404.05.64.285 0 0 2.634 2.616 3.588 3.57a.586.586 0 0 0 .465.177l.046-.011v.005c1.024-.092 2.253-.272 2.724-.423l.061-.063c.02-.02.04-.036.059-.056.147-.465.325-1.676.418-2.684l.008-.06c.014-.083.014-.312-.082-.408-.917-.917-3.658-3.68-3.658-3.68a.86.86 0 0 1-.244-.841.88.88 0 0 1 .609-.613 7.797 7.797 0 0 1 2.05-.274c2.075 0 4.027.808 5.495 2.277a7.724 7.724 0 0 1 2.277 5.497 7.76 7.76 0 0 1-.614 3.037l5.552 5.553a12.62 12.62 0 0 0 1.793-6.503c0-7.004-5.676-12.682-12.68-12.682-7.002 0-12.678 5.678-12.678 12.682 0 7.005 5.676 12.683 12.679 12.683 2.513 0 4.852-.734 6.823-1.995z"/></g></g></svg>